<?xml version="1.0" encoding="UTF-8" standalone="no"?>
<!-- Created with Inkscape (http://www.inkscape.org/) -->

<svg
   xmlns:dc="http://purl.org/dc/elements/1.1/"
   xmlns:cc="http://creativecommons.org/ns#"
   xmlns:rdf="http://www.w3.org/1999/02/22-rdf-syntax-ns#"
   xmlns:svg="http://www.w3.org/2000/svg"
   xmlns="http://www.w3.org/2000/svg"
   xmlns:sodipodi="http://sodipodi.sourceforge.net/DTD/sodipodi-0.dtd"
   xmlns:inkscape="http://www.inkscape.org/namespaces/inkscape"
   width="210mm"
   height="297mm"
   viewBox="0 0 210 297"
   version="1.1"
   id="svg1667"
   inkscape:version="0.92.4 (5da689c313, 2019-01-14)"
   sodipodi:docname="logo banco.svg">
  <defs
     id="defs1661" />
  <sodipodi:namedview
     id="base"
     pagecolor="#ffffff"
     bordercolor="#666666"
     borderopacity="1.0"
     inkscape:pageopacity="0.0"
     inkscape:pageshadow="2"
     inkscape:zoom="0.49497475"
     inkscape:cx="145.03492"
     inkscape:cy="620.38553"
     inkscape:document-units="mm"
     inkscape:current-layer="layer1"
     showgrid="false"
     inkscape:window-width="1366"
     inkscape:window-height="705"
     inkscape:window-x="-8"
     inkscape:window-y="-8"
     inkscape:window-maximized="1" />
  <metadata
     id="metadata1664">
    <rdf:RDF>
      <cc:Work
         rdf:about="">
        <dc:format>image/svg+xml</dc:format>
        <dc:type
           rdf:resource="http://purl.org/dc/dcmitype/StillImage" />
        <dc:title />
      </cc:Work>
    </rdf:RDF>
  </metadata>
  <g
     inkscape:label="Capa 1"
     inkscape:groupmode="layer"
     id="layer1">
    <g
       id="g2067"
       transform="translate(0.75595524,-3.0238095)">
      <rect
         ry="4.3554044"
         y="57.871742"
         x="17.463947"
         height="168.97749"
         width="177.11679"
         id="rect1598"
         style="opacity:1;fill:#ffffff;fill-opacity:1;stroke:#ffffff;stroke-width:8.19624996;stroke-linecap:round;stroke-linejoin:round;stroke-miterlimit:4;stroke-dasharray:none;stroke-opacity:1;paint-order:stroke fill markers" />
      <path
         sodipodi:nodetypes="ccccssc"
         inkscape:connector-curvature="0"
         id="path851"
         d="M 16.628461,164.30514 16.906943,58.459773 194.58073,57.871742 c -0.13983,47.485338 0.24122,93.320768 -0.55697,142.891248 -0.49243,2.51135 -64.11862,-7.20559 -94.685086,-46.45436 -26.912269,-34.5566 -34.774128,-42.28969 -37.595554,-42.63216 -5.060188,-0.61423 -30.301595,24.6419 -45.114659,52.62867 z"
         style="fill:#3f3ff2;fill-opacity:1;stroke:#3f3ff2;stroke-width:1.85217798;stroke-linecap:butt;stroke-linejoin:round;stroke-miterlimit:4;stroke-dasharray:none;stroke-opacity:1" />
      <path
         sodipodi:nodetypes="cccccccc"
         inkscape:connector-curvature="0"
         id="path826"
         d="m 17.188004,227.42731 0.560097,-41.15988 c -0.711158,-1.11993 37.216661,-60.75818 43.967826,-58.79998 0.698414,5.83568 -0.656202,78.49788 0,84.37787 -0.531958,5.88001 23.524175,-59.09391 23.524175,-59.09391 -1.520071,-0.24998 36.962448,59.37656 109.779548,62.9159 l 0.28001,11.46599 z"
         style="fill:#808080;stroke:#808080;stroke-width:1.8573246;stroke-linecap:round;stroke-linejoin:round;stroke-miterlimit:4;stroke-dasharray:none;stroke-opacity:1" />
      <path
         style="fill:none;fill-opacity:1;stroke:#000000;stroke-width:5.53449774;stroke-linecap:round;stroke-linejoin:round;stroke-miterlimit:4;stroke-dasharray:none;stroke-opacity:1"
         d="m 84.670522,153.71051 c 0.109308,3.48978 6.23992,12.25739 22.166928,26.11913 m 18.78047,14.7532 c 18.84616,11.5785 35.56268,18.90257 67.88963,23.03146 m 0,0 0.27764,11.64601 -176.58251,0.29859 0.555289,-41.80621 c -0.705054,-1.13747 36.897137,-61.71204 43.590339,-59.72307 0.692421,5.92729 -0.650563,79.73033 0,85.70268 -0.527387,5.97232 23.322214,-60.02179 23.322214,-60.02179"
         id="path2010"
         inkscape:connector-curvature="0"
         sodipodi:nodetypes="ccccccccccc" />
      <path
         style="fill:#3f3ff2;fill-opacity:1;stroke:#000000;stroke-width:5.5;stroke-linecap:round;stroke-linejoin:round;stroke-miterlimit:4;stroke-dasharray:none;stroke-opacity:1"
         d="m 16.906933,58.459619 44.41845,-0.14697 m 0,0 30.811299,-0.146969 m 37.532658,0.0729 c 43.953,-0.04906 5.68678,-0.171027 20.49294,-0.219877 m 0,0 44.41845,-0.146969 m 0,0 c -0.13983,47.485341 0.24121,93.320781 -0.55697,142.891261 -0.49244,2.51134 -64.11864,-7.20559 -94.685097,-46.45436 -26.91227,-34.5566 -34.77413,-42.28969 -37.59556,-42.63216 -5.06018,-0.61424 -30.30159,24.6419 -45.11465,52.62867 l 0.27848,-105.84538"
         id="path2022"
         inkscape:connector-curvature="0"
         sodipodi:nodetypes="ccccccccccsscc" />
      <path
         d="m 116.0943,184.60637 a 1.6252648,1.6975074 0 0 1 2.28384,-0.23636 1.6252648,1.6975074 0 0 1 0.23314,2.38465 1.6252648,1.6975074 0 0 1 -2.28245,0.25063 1.6252648,1.6975074 0 0 1 -0.2468,-2.38314"
         sodipodi:open="true"
         sodipodi:end="3.8177507"
         sodipodi:start="3.8297236"
         sodipodi:ry="1.6975074"
         sodipodi:rx="1.6252648"
         sodipodi:cy="185.68445"
         sodipodi:cx="117.34971"
         sodipodi:type="arc"
         id="path2020"
         style="opacity:1;fill:#000000;fill-opacity:1;stroke:#000000;stroke-width:5.5;stroke-linecap:round;stroke-linejoin:round;stroke-miterlimit:4;stroke-dasharray:none;stroke-opacity:1;paint-order:markers fill stroke" />
      <path
         style="opacity:1;fill:#000000;fill-opacity:1;stroke:#000000;stroke-width:5.5;stroke-linecap:round;stroke-linejoin:round;stroke-miterlimit:4;stroke-dasharray:none;stroke-opacity:1;paint-order:markers fill stroke"
         id="path2038"
         sodipodi:type="arc"
         sodipodi:cx="110.90054"
         sodipodi:cy="58.055302"
         sodipodi:rx="1.6252648"
         sodipodi:ry="1.6975074"
         sodipodi:start="3.8297236"
         sodipodi:end="3.8177507"
         sodipodi:open="true"
         d="m 109.64513,56.977224 a 1.6252648,1.6975074 0 0 1 2.28385,-0.236356 1.6252648,1.6975074 0 0 1 0.23313,2.384643 1.6252648,1.6975074 0 0 1 -2.28245,0.250632 1.6252648,1.6975074 0 0 1 -0.2468,-2.383143" />
      <g
         transform="matrix(2.0839306,0,0,2.2001381,-89.659124,-169.56816)"
         style="fill:#ffffff;stroke:#000000;stroke-width:1.49445689;stroke-linecap:round;stroke-linejoin:round;stroke-miterlimit:4;stroke-dasharray:none"
         id="g867">
        <path
           style="fill:#ffffff;stroke:#000000;stroke-width:1.49445689;stroke-linecap:round;stroke-linejoin:round;stroke-miterlimit:4;stroke-dasharray:none;stroke-opacity:1"
           d="m 131.83069,128.41974 -45.903539,0.0668 18.575239,3.60814 8.61944,-7.41673 z"
           id="path830"
           inkscape:connector-curvature="0" />
        <g
           style="fill:#ffffff;stroke:#000000;stroke-width:1.49445689;stroke-linecap:round;stroke-linejoin:round;stroke-miterlimit:4;stroke-dasharray:none"
           id="g858">
          <path
             inkscape:connector-curvature="0"
             id="path828"
             d="m 108.66815,148.07738 -0.18898,-40.06548 -3.6427,16.53243 7.88445,7.684 z"
             style="fill:#ffffff;stroke:#000000;stroke-width:1.49445689;stroke-linecap:round;stroke-linejoin:round;stroke-miterlimit:4;stroke-dasharray:none;stroke-opacity:1" />
          <path
             inkscape:connector-curvature="0"
             id="path832"
             d="m 104.83647,124.54433 v 0 h -3.4745 l -5.612663,-7.75081 z"
             style="fill:#ffffff;stroke:#000000;stroke-width:1.49445689;stroke-linecap:round;stroke-linejoin:round;stroke-miterlimit:4;stroke-dasharray:none;stroke-opacity:1" />
          <path
             inkscape:connector-curvature="0"
             id="path834"
             d="m 113.12183,124.67795 -0.13364,-2.93995 8.68626,-4.94448 z"
             style="fill:#ffffff;stroke:#000000;stroke-width:1.49445689;stroke-linecap:round;stroke-linejoin:round;stroke-miterlimit:4;stroke-dasharray:none;stroke-opacity:1" />
          <path
             inkscape:connector-curvature="0"
             id="path836"
             d="m 112.72092,132.22833 3.54132,-0.13363 5.41221,7.95127 z"
             style="fill:#ffffff;stroke:#000000;stroke-width:1.49445689;stroke-linecap:round;stroke-linejoin:round;stroke-miterlimit:4;stroke-dasharray:none;stroke-opacity:1" />
          <path
             inkscape:connector-curvature="0"
             id="path849"
             d="m 104.50239,132.09468 0.0553,3.03701 -8.457214,4.9137 z"
             style="fill:#ffffff;stroke:#000000;stroke-width:1.49445689;stroke-linecap:round;stroke-linejoin:round;stroke-miterlimit:4;stroke-dasharray:none;stroke-opacity:1" />
        </g>
      </g>
    </g>
  </g>
</svg>
